<?xml version="1.0" standalone="no"?>
<!DOCTYPE svg PUBLIC "-//W3C//DTD SVG 20010904//EN"
 "http://www.w3.org/TR/2001/REC-SVG-20010904/DTD/svg10.dtd">
<svg version="1.0" xmlns="http://www.w3.org/2000/svg"
 width="917.000000pt" height="866.000000pt" viewBox="0 0 917.000000 866.000000"
 preserveAspectRatio="xMidYMid meet">

<g transform="translate(0.000000,866.000000) scale(0.100000,-0.100000)"
fill="#000000" stroke="none">
<path d="M4425 8164 c-112 -12 -251 -38 -345 -65 -118 -33 -352 -144 -469
-221 -195 -129 -380 -319 -513 -528 -180 -281 -284 -685 -263 -1020 11 -174
67 -417 133 -575 51 -123 163 -314 185 -315 4 0 7 37 7 83 0 249 65 467 197
666 176 262 443 443 747 506 90 18 329 21 414 5 320 -60 573 -232 748 -505 97
-152 151 -359 139 -533 -7 -100 -15 -130 -64 -234 -64 -135 -172 -218 -283
-218 -114 0 -168 37 -168 113 0 52 -28 93 -94 139 -29 20 -58 48 -66 63 -14
26 -13 28 19 57 28 25 32 35 28 61 -11 64 -20 92 -38 116 -11 13 -19 35 -19
48 0 75 -73 117 -129 74 -18 -14 -25 -31 -29 -70 -2 -28 -8 -51 -12 -51 -9 0
-60 -112 -60 -133 0 -8 16 -28 37 -44 49 -40 42 -66 -38 -124 -60 -43 -99 -97
-99 -137 0 -10 12 -29 26 -43 25 -23 31 -24 145 -21 l119 2 47 -42 c55 -52 83
-112 83 -181 -1 -77 -27 -122 -130 -222 -50 -49 -98 -101 -106 -117 -8 -15
-14 -52 -14 -83 0 -55 -12 -93 -34 -107 -6 -4 -41 -17 -78 -29 -86 -28 -111
-54 -112 -117 -1 -39 5 -55 32 -89 17 -22 32 -49 32 -59 0 -9 -18 -41 -40 -70
-22 -30 -43 -67 -46 -84 -8 -38 1 -38 21 -1 8 16 37 55 65 87 57 65 61 87 25
140 -50 73 -27 123 70 153 36 11 74 25 86 31 24 14 82 101 98 150 11 36 93
123 184 195 47 37 54 40 161 52 293 33 532 138 749 328 250 219 415 504 503
870 28 116 29 129 29 365 0 233 -2 251 -28 363 -126 531 -454 950 -933 1190
-168 85 -300 129 -489 163 -80 14 -355 26 -430 18z"/>
<path d="M3995 5249 c-265 -22 -586 -215 -800 -479 -173 -215 -271 -423 -337
-720 -20 -92 -23 -131 -23 -310 1 -187 3 -216 29 -330 33 -148 82 -299 127
-396 28 -60 137 -249 160 -279 181 -229 308 -350 504 -476 301 -195 641 -280
1025 -258 172 9 302 35 465 93 317 111 620 335 823 608 162 218 254 427 311
704 28 134 31 170 31 321 0 254 -38 447 -130 670 -66 157 -188 373 -212 373
-4 0 -8 -51 -8 -112 0 -284 -80 -539 -227 -730 -192 -251 -395 -387 -703 -473
-75 -21 -353 -31 -449 -16 -154 24 -352 107 -474 198 -81 61 -197 179 -246
251 -93 138 -143 272 -161 436 -23 204 19 349 139 475 l42 44 27 -26 c15 -14
50 -36 77 -49 45 -21 64 -23 195 -22 175 0 238 19 307 90 53 55 69 107 53 175
-32 131 -159 213 -370 239 -46 5 -85 9 -85 9 0 -1 -40 -5 -90 -10z"/>
<path d="M3551 1461 c-6 -11 -11 -43 -11 -72 l0 -52 -214 7 c-118 4 -226 4
-240 0 -24 -6 -26 -11 -26 -55 l0 -49 240 0 240 0 0 -314 0 -315 25 -28 25
-28 19 22 c23 27 33 150 30 353 -1 74 -1 174 0 223 l1 87 99 0 c105 0 111 3
111 54 0 39 -18 46 -117 46 l-92 0 -3 68 -3 67 -37 3 c-28 2 -39 -1 -47 -17z"/>
<path d="M2254 1445 c-2 -5 -3 -233 -2 -505 l3 -495 30 0 c17 -1 41 2 54 5
l23 6 0 232 0 232 93 0 c120 0 144 19 115 94 -9 25 -12 26 -103 26 l-94 0 -6
73 c-2 39 -2 107 1 150 l5 77 106 0 c58 0 137 3 174 7 59 5 70 9 79 29 8 18 7
29 -6 48 l-16 25 -226 3 c-145 2 -228 -1 -230 -7z"/>
<path d="M6435 1265 c-30 -30 -32 -59 -4 -78 37 -27 89 2 89 49 0 21 -33 54
-53 54 -4 0 -19 -11 -32 -25z"/>
<path d="M5216 1209 c-102 -24 -220 -119 -272 -221 -78 -150 -81 -324 -9 -475
67 -138 193 -224 355 -243 85 -10 160 -5 193 12 15 8 17 30 17 248 l0 240
-114 0 c-63 0 -121 -3 -130 -6 -12 -5 -16 -20 -16 -60 l0 -53 73 -3 72 -3 0
-130 0 -130 -30 -3 c-40 -5 -142 16 -174 36 -49 30 -113 97 -137 144 -49 97
-49 268 0 366 14 27 49 71 79 99 79 71 156 87 288 57 24 -5 28 -2 39 30 19 58
11 79 -35 92 -47 15 -144 16 -199 3z"/>
<path d="M3320 958 l-1 -143 -77 81 c-42 44 -101 107 -131 140 -48 53 -54 57
-61 39 -5 -11 -9 -127 -9 -257 l-1 -238 46 0 45 0 -2 139 c-2 77 -1 142 2 145
3 3 65 -59 139 -139 73 -80 135 -143 138 -140 5 4 3 497 -1 501 -1 1 -21 5
-44 9 l-43 7 0 -144z"/>
<path d="M3895 1083 c-98 -27 -165 -132 -165 -258 0 -199 149 -309 316 -231
44 20 55 32 79 79 68 139 31 317 -78 381 -44 26 -115 39 -152 29z m99 -103
c54 -20 86 -131 62 -215 -32 -109 -123 -138 -193 -61 -36 39 -48 86 -39 150
15 101 91 157 170 126z"/>
<path d="M4250 836 l0 -256 45 0 45 0 0 130 c0 72 3 130 8 129 4 0 39 -40 77
-89 39 -49 75 -89 80 -90 6 0 35 34 65 76 l55 75 5 -118 5 -118 44 0 44 0 -2
235 c-1 129 -6 239 -10 243 -9 9 -62 -54 -146 -172 -27 -39 -55 -70 -61 -68
-7 1 -44 40 -84 87 -40 47 -95 109 -122 138 l-48 54 0 -256z"/>
<path d="M5600 830 l0 -260 145 0 145 0 0 50 0 50 -52 1 c-52 1 -126 5 -140 8
-5 0 -8 24 -8 51 l0 50 60 0 60 0 0 55 0 55 -62 -3 -63 -2 0 50 0 50 88 3 87
3 0 49 0 50 -130 0 -130 0 0 -260z"/>
<path d="M5972 833 l3 -258 40 0 40 0 3 148 c1 81 7 147 11 147 5 0 18 -11 28
-24 56 -72 224 -276 228 -276 3 0 5 117 5 260 l0 260 -45 0 -45 0 0 -125 c0
-69 -3 -125 -7 -125 -10 0 -106 103 -170 182 -33 41 -63 68 -74 68 -19 0 -19
-10 -17 -257z"/>
<path d="M6438 875 c-1 -118 -2 -234 -3 -257 l0 -43 45 0 45 0 3 258 2 257
-45 0 -45 0 -2 -215z"/>
<path d="M6644 1076 c-3 -7 -4 -123 -2 -257 l3 -244 135 0 135 0 0 45 0 45
-90 0 -90 0 0 60 0 60 58 -3 57 -2 0 45 0 45 -54 0 c-30 0 -56 3 -59 8 -2 4
-1 33 1 65 l4 57 89 0 89 0 0 45 0 45 -135 0 c-106 0 -137 -3 -141 -14z"/>
<path d="M2746 1038 c-8 -18 -29 -73 -46 -123 -18 -49 -51 -143 -76 -207 -24
-65 -44 -120 -44 -123 0 -3 22 -5 49 -5 48 0 49 0 58 38 l9 37 70 3 71 3 16
-41 c15 -40 16 -40 67 -40 59 0 58 -4 21 85 -11 28 -51 129 -89 224 -38 96
-74 177 -80 179 -6 2 -17 -12 -26 -30z m47 -215 c9 -31 16 -58 14 -59 -8 -8
-68 -11 -72 -3 -7 10 25 119 35 119 3 0 13 -26 23 -57z"/>
</g>
</svg>
