<?xml version="1.0" standalone="no"?>
<!DOCTYPE svg PUBLIC "-//W3C//DTD SVG 20010904//EN"
 "http://www.w3.org/TR/2001/REC-SVG-20010904/DTD/svg10.dtd">
<svg version="1.0" xmlns="http://www.w3.org/2000/svg"
 width="3284.000000pt" height="1280.000000pt" viewBox="0 0 3284.000000 1280.000000"
 preserveAspectRatio="xMidYMid meet">

<g transform="translate(0.000000,1280.000000) scale(0.100000,-0.100000)"
fill="#000000" stroke="none">
<path d="M3980 12539 c-58 -5 -154 -17 -215 -28 -60 -11 -130 -23 -155 -26
-55 -8 -188 -43 -375 -97 -112 -33 -428 -176 -590 -268 -22 -13 -60 -34 -85
-48 -71 -39 -320 -208 -380 -258 -155 -130 -384 -350 -470 -450 -92 -108 -277
-370 -370 -524 -98 -162 -232 -461 -281 -625 -64 -215 -79 -273 -103 -385 -57
-276 -67 -363 -73 -640 -7 -359 5 -485 84 -835 23 -103 107 -376 153 -500 77
-204 244 -519 333 -627 61 -74 67 -68 67 70 0 125 22 405 40 512 47 280 199
636 375 878 33 46 67 93 75 105 31 47 139 165 214 237 44 41 89 84 100 96 25
25 222 174 231 174 3 0 30 18 60 40 137 101 480 244 715 298 185 43 221 46
485 46 204 0 282 -4 360 -18 302 -53 642 -186 865 -339 180 -123 297 -230 441
-402 86 -102 199 -258 199 -274 0 -6 4 -11 9 -11 15 0 148 -281 179 -380 70
-217 104 -507 83 -704 -14 -127 -27 -182 -69 -286 -129 -321 -310 -505 -542
-551 -109 -21 -264 4 -333 55 -46 34 -65 77 -71 165 -3 45 -11 92 -17 104 -28
53 -95 119 -179 176 -97 67 -147 131 -136 174 3 12 30 44 61 70 52 45 55 51
55 94 0 27 -8 58 -19 77 -10 17 -22 52 -25 78 -5 33 -18 60 -42 89 -27 33 -34
50 -34 84 0 67 -34 137 -83 168 -22 15 -54 27 -70 27 -37 0 -125 -47 -139 -74
-7 -12 -14 -58 -18 -103 -6 -67 -11 -86 -33 -112 -40 -48 -99 -174 -104 -224
-7 -56 7 -82 57 -107 49 -25 70 -55 70 -100 0 -43 -29 -73 -168 -175 -83 -61
-95 -74 -124 -133 -53 -113 -40 -181 45 -225 41 -21 163 -26 345 -12 96 7 105
6 155 -18 68 -32 162 -133 207 -223 34 -68 35 -71 35 -194 0 -182 -8 -195
-245 -430 -231 -229 -240 -243 -240 -397 0 -118 -15 -167 -62 -211 -23 -21
-122 -62 -151 -62 -18 0 -114 -40 -153 -64 -68 -41 -107 -149 -85 -233 6 -21
36 -72 66 -113 47 -63 55 -80 55 -117 0 -43 -30 -103 -71 -145 -56 -56 -115
-171 -103 -202 6 -17 34 -10 34 8 0 22 64 114 121 173 30 32 72 83 92 113 51
76 50 109 -7 178 -67 82 -80 145 -46 212 28 54 74 84 180 115 137 40 163 51
197 85 49 49 123 165 139 217 27 91 67 144 204 275 74 71 173 154 220 185 l84
56 146 13 c226 21 500 77 635 130 33 12 92 35 130 49 85 32 314 146 370 185
22 15 85 57 140 93 55 36 138 97 185 137 138 118 371 358 446 460 219 297 339
506 425 740 15 41 39 107 54 145 44 113 83 243 105 345 11 52 29 133 40 180
38 161 50 318 50 635 0 165 -5 339 -10 385 -34 280 -140 679 -247 925 -40 91
-166 350 -185 379 -7 11 -47 74 -90 140 -123 194 -301 418 -429 542 -73 69
-235 215 -274 247 -11 9 -55 45 -98 81 -43 36 -82 66 -86 66 -4 0 -16 8 -27
18 -10 10 -57 43 -104 73 -80 52 -109 69 -255 150 -92 50 -282 143 -355 172
-135 54 -199 77 -213 77 -8 0 -43 9 -78 19 -256 76 -449 113 -675 130 -159 12
-469 12 -624 0z"/>
<path d="M14965 9135 c-48 -26 -75 -56 -107 -120 -31 -60 -31 -61 -38 -270 -6
-213 -12 -245 -48 -263 -9 -5 -175 -5 -372 -1 -195 4 -670 11 -1055 15 -728 7
-812 4 -883 -34 -47 -24 -54 -62 -50 -279 3 -162 5 -186 21 -197 14 -11 250
-14 1169 -15 977 -1 1156 -4 1174 -16 20 -13 22 -23 26 -167 2 -84 1 -409 -3
-723 -10 -681 -3 -1883 11 -2082 9 -130 13 -147 41 -199 33 -61 141 -180 174
-191 28 -9 65 -4 92 14 23 16 41 43 92 142 13 25 28 49 33 52 30 19 64 820 53
1245 -13 497 -14 984 -4 1209 6 127 11 330 12 452 2 185 5 225 17 238 14 13
79 16 460 20 263 3 458 10 477 16 21 7 42 26 64 61 30 47 34 60 37 144 6 123
-2 157 -45 205 -77 85 -120 91 -614 90 -295 -1 -378 1 -387 11 -6 8 -11 114
-14 285 -3 258 -4 273 -24 300 -36 48 -71 61 -179 68 -82 5 -105 3 -130 -10z"/>
<path d="M8580 9026 c-80 -6 -153 -16 -163 -22 -15 -8 -21 -35 -33 -125 -12
-96 -14 -476 -13 -2469 0 -1343 5 -2362 10 -2371 4 -9 21 -20 36 -24 82 -21
438 -9 485 16 10 5 20 20 23 32 4 13 7 532 8 1155 2 1016 4 1133 18 1147 14
14 64 16 417 15 400 0 450 3 539 37 89 33 126 179 88 347 -23 107 -39 140 -80
172 l-36 27 -442 5 c-243 2 -450 8 -459 13 -34 18 -38 99 -36 786 1 667 2 673
22 692 20 18 47 19 561 25 892 10 1073 16 1120 36 76 34 165 157 165 230 0 90
-106 237 -186 259 -78 21 -485 31 -1184 29 -404 -1 -778 -6 -860 -12z"/>
<path d="M29366 8178 c-69 -27 -156 -116 -189 -194 -43 -99 -32 -160 44 -250
76 -90 120 -110 196 -89 26 8 74 16 106 20 53 6 59 9 85 48 67 100 83 137 89
205 4 59 2 73 -21 115 -48 89 -85 125 -153 147 -75 24 -93 24 -157 -2z"/>
<path d="M23410 7860 c-30 -4 -82 -14 -115 -23 -32 -10 -68 -17 -80 -17 -31 0
-211 -55 -290 -88 -112 -47 -288 -139 -365 -192 -215 -146 -433 -362 -561
-555 -163 -246 -187 -286 -252 -435 -6 -14 -15 -31 -21 -38 -11 -15 -51 -125
-72 -197 -8 -27 -21 -65 -30 -83 -8 -18 -19 -56 -24 -85 -5 -28 -18 -88 -29
-131 -12 -44 -21 -98 -21 -120 0 -23 -7 -68 -15 -101 -17 -72 -21 -515 -5
-610 6 -33 15 -106 20 -162 6 -64 17 -119 30 -147 11 -25 20 -56 20 -69 0 -27
16 -78 55 -182 14 -38 35 -97 46 -130 17 -52 62 -146 149 -313 24 -46 67 -112
81 -122 3 -3 17 -23 31 -45 31 -49 100 -135 185 -230 37 -42 180 -165 191
-165 7 0 12 -4 12 -9 0 -6 26 -27 58 -47 31 -20 81 -53 110 -73 54 -37 118
-75 187 -112 22 -11 60 -31 85 -44 25 -14 65 -32 90 -41 25 -9 70 -27 100 -39
91 -37 323 -103 415 -119 17 -3 176 -10 355 -16 275 -10 349 -9 480 4 124 12
167 20 210 40 30 14 60 26 66 26 6 0 25 16 43 36 26 28 35 50 44 102 8 48 11
388 9 1167 -2 966 -4 1102 -18 1115 -12 12 -64 16 -302 20 -158 3 -416 3 -574
-1 l-287 -6 -48 -29 c-70 -44 -75 -63 -71 -331 2 -165 6 -225 16 -235 10 -10
92 -14 345 -18 350 -6 372 -9 382 -53 4 -18 16 -973 14 -1146 0 -49 -17 -87
-49 -114 -19 -16 -43 -18 -210 -17 -124 0 -215 5 -262 14 -40 8 -98 17 -128
21 -54 6 -150 31 -240 63 -72 26 -227 118 -330 195 -179 136 -401 377 -472
515 -22 42 -46 84 -54 93 -7 8 -17 30 -20 47 -4 17 -13 37 -20 43 -8 6 -14 16
-14 21 0 5 -11 37 -24 71 -36 95 -74 252 -86 357 -27 239 -29 354 -9 603 21
272 46 387 118 560 23 53 41 101 41 107 0 5 24 45 53 89 28 44 73 113 99 153
62 97 310 351 384 392 16 9 49 30 74 46 94 60 166 97 205 104 22 4 45 12 51
17 6 4 53 20 105 34 247 66 621 49 857 -39 55 -21 139 -23 156 -5 19 22 61
125 90 219 89 292 57 348 -234 416 -36 9 -94 23 -130 32 -71 17 -496 26 -600
12z"/>
<path d="M13722 7252 c-30 -20 -32 -78 -22 -582 18 -847 18 -785 -5 -788 -22
-2 -375 349 -605 603 -69 76 -137 150 -151 166 -14 15 -53 58 -85 96 -32 37
-64 73 -70 78 -6 6 -33 37 -59 70 -56 70 -255 276 -303 313 -30 23 -35 24 -49
10 -9 -9 -18 -46 -23 -89 -5 -41 -14 -89 -21 -108 -9 -26 -10 -138 -5 -470 4
-240 7 -445 6 -456 -5 -65 -12 -540 -13 -905 -1 -402 0 -427 19 -465 16 -33
25 -41 54 -45 56 -8 313 4 332 15 11 6 22 32 28 64 14 77 12 625 -4 901 -16
270 -10 410 17 437 16 17 19 17 52 -1 19 -11 43 -33 53 -51 19 -31 80 -100
227 -255 81 -86 192 -206 231 -251 12 -13 47 -48 78 -78 31 -30 56 -59 56 -64
0 -5 54 -63 119 -130 66 -67 136 -142 156 -167 21 -25 67 -77 104 -116 36 -39
80 -88 98 -110 63 -77 191 -204 206 -204 36 0 40 24 38 265 -1 130 -6 280 -11
335 -5 55 -9 509 -9 1012 0 894 0 912 -19 931 -16 15 -33 19 -75 18 -30 0 -99
6 -153 14 -110 17 -173 19 -192 7z"/>
<path d="M26998 7230 c-9 -6 -21 -25 -26 -43 -7 -20 -12 -484 -14 -1269 -3
-1176 -2 -1238 15 -1255 15 -15 42 -19 180 -23 89 -3 174 -4 189 -2 57 7 56
-8 60 683 1 349 1 671 -2 716 -4 67 -2 85 11 99 15 15 19 15 48 0 17 -9 31
-21 31 -25 0 -10 91 -128 135 -175 15 -17 57 -66 93 -110 36 -45 87 -103 112
-131 26 -27 81 -93 123 -145 41 -52 93 -114 114 -137 45 -49 106 -125 194
-243 34 -47 69 -89 75 -95 20 -16 114 -137 114 -146 0 -17 202 -251 233 -269
18 -11 35 -20 38 -20 25 0 28 83 30 902 3 1530 2 1649 -16 1667 -12 12 -38 16
-103 18 -48 1 -124 4 -170 8 -91 7 -146 -5 -157 -33 -3 -9 -8 -282 -11 -605
-3 -374 -8 -596 -15 -608 -14 -27 -56 -15 -88 25 -14 17 -107 114 -207 216
-100 102 -208 217 -240 255 -32 39 -61 72 -64 75 -21 17 -175 199 -202 238
-95 139 -333 396 -393 423 -45 21 -63 23 -87 9z"/>
<path d="M30690 7230 c-179 -4 -333 -10 -343 -15 -47 -20 -47 -21 -46 -727 0
-365 5 -766 10 -893 13 -291 12 -247 8 -612 -5 -374 -12 -353 106 -333 62 11
91 11 158 0 61 -9 206 -11 564 -8 431 4 484 6 507 21 l26 17 0 189 c0 186 0
188 -25 215 l-24 26 -208 0 c-202 0 -505 -14 -570 -26 -27 -5 -37 -1 -63 24
l-30 30 0 259 0 259 29 34 28 35 194 -24 c287 -34 313 -36 325 -20 7 9 14 91
17 206 5 166 3 195 -11 224 l-17 32 -205 -4 c-113 -1 -224 -3 -246 -3 -79 -1
-124 48 -108 116 4 18 7 97 5 176 -3 186 6 285 29 310 17 18 42 19 421 26 430
8 449 10 465 58 8 24 7 315 -2 359 -3 15 -16 31 -29 37 -32 15 -546 21 -965
12z"/>
<path d="M25372 7210 c-231 -5 -234 -5 -253 -29 -18 -23 -19 -58 -19 -1281 0
-1025 2 -1260 13 -1268 9 -8 212 -10 693 -7 373 2 684 4 691 4 6 1 18 8 26 16
12 12 14 49 12 217 -2 112 -3 213 -4 225 -1 14 -12 28 -32 39 -27 14 -90 16
-471 19 -399 3 -442 5 -459 21 -17 16 -19 33 -19 221 0 219 6 248 53 275 16 9
93 14 277 16 146 2 259 8 265 13 13 13 7 477 -6 502 -9 16 -21 17 -117 12 -59
-4 -132 -11 -162 -17 -30 -6 -107 -11 -171 -11 -112 1 -153 10 -171 37 -4 6
-8 108 -8 227 l0 216 41 29 41 28 391 2 c359 2 392 3 403 19 10 13 13 70 10
232 -2 185 -5 216 -19 231 -16 15 -54 17 -395 17 -207 0 -482 -2 -610 -5z"/>
<path d="M29298 7203 c-14 -16 -16 -163 -20 -1271 -5 -1242 -5 -1253 15 -1278
17 -23 25 -25 61 -20 23 3 105 7 183 7 117 2 148 5 172 20 l28 17 9 239 c9
267 8 2177 -2 2236 -9 60 -37 67 -252 67 -158 0 -181 -2 -194 -17z"/>
<path d="M16630 7186 c-94 -18 -134 -32 -220 -76 -58 -29 -130 -69 -160 -89
-71 -45 -220 -195 -266 -267 -51 -79 -112 -200 -120 -238 -3 -17 -17 -51 -30
-76 -13 -25 -24 -57 -24 -71 0 -15 -9 -57 -21 -94 -42 -137 -42 -640 1 -771
11 -35 20 -69 20 -76 0 -7 9 -29 19 -49 11 -20 24 -54 30 -77 12 -45 97 -211
124 -242 9 -11 32 -42 51 -70 39 -56 139 -160 155 -160 6 0 26 -13 44 -30 47
-41 183 -110 297 -150 l95 -34 200 1 200 0 105 36 c250 84 360 146 458 254 80
90 98 115 159 235 51 97 94 225 135 398 20 86 22 119 22 355 -1 224 -3 266
-18 300 -10 22 -22 67 -27 99 -6 33 -19 78 -29 102 -11 24 -20 50 -20 58 0 21
-52 151 -86 211 -80 146 -181 262 -289 329 -33 21 -65 43 -70 49 -10 12 -101
58 -190 96 -56 24 -153 49 -235 61 -92 14 -189 9 -310 -14z m426 -501 c32 -15
61 -30 64 -34 3 -4 22 -20 43 -36 50 -37 124 -134 142 -185 8 -23 24 -54 35
-70 11 -15 20 -37 20 -48 0 -12 9 -36 20 -54 20 -35 47 -180 57 -303 6 -88
-19 -285 -48 -362 -11 -32 -25 -78 -30 -102 -5 -25 -18 -54 -28 -65 -10 -12
-22 -31 -25 -43 -16 -53 -141 -213 -166 -213 -5 0 -21 -11 -36 -25 -15 -14
-35 -25 -44 -25 -10 0 -37 -9 -61 -20 -64 -29 -225 -28 -317 1 -153 49 -245
125 -354 293 -31 47 -75 169 -99 271 -20 90 -12 314 17 460 15 72 32 137 39
145 7 8 16 29 20 47 3 17 13 37 22 45 9 7 24 32 34 55 10 24 22 43 27 43 5 0
15 13 21 28 11 26 71 86 150 149 18 15 70 39 115 55 76 27 89 29 202 25 104
-4 128 -8 180 -32z"/>
<path d="M18364 7164 c-9 -34 2 -2434 11 -2457 17 -41 53 -47 240 -40 131 4
178 10 187 20 8 10 11 176 9 623 -2 430 1 615 9 629 12 23 48 28 71 9 9 -7 30
-37 48 -66 18 -29 39 -56 45 -60 12 -7 78 -86 186 -222 36 -45 81 -101 100
-124 56 -68 133 -165 165 -211 29 -40 101 -128 137 -166 46 -49 103 -32 145
43 17 29 61 85 97 123 36 39 85 100 107 138 23 37 46 70 50 73 5 3 32 38 59
77 27 40 69 97 92 128 24 31 52 69 63 84 31 44 44 55 60 49 8 -3 16 -13 18
-22 2 -10 5 -258 6 -552 1 -546 4 -590 40 -609 10 -6 92 -7 191 -4 172 6 175
7 201 33 l27 26 -3 1090 c-3 1064 -7 1191 -35 1244 -12 22 -58 32 -85 17 -33
-17 -136 -119 -162 -161 -14 -21 -45 -63 -69 -93 -64 -78 -61 -75 -89 -109
-14 -18 -25 -35 -25 -38 0 -3 -19 -34 -42 -67 -24 -34 -61 -88 -84 -120 -22
-33 -48 -67 -57 -77 -35 -36 -89 -107 -113 -148 -14 -24 -29 -44 -33 -44 -4 0
-24 -28 -44 -62 -20 -35 -58 -85 -83 -113 -25 -27 -63 -77 -85 -111 -21 -33
-50 -66 -64 -72 -50 -23 -74 -6 -166 118 -15 19 -42 51 -60 71 -19 20 -54 60
-79 89 -25 29 -56 65 -70 80 -14 15 -84 96 -157 182 -72 85 -150 174 -172 199
-22 24 -41 47 -41 50 0 13 -65 89 -158 184 -178 184 -275 290 -298 327 -22 34
-59 68 -76 68 -4 0 -11 -12 -14 -26z"/>
<path d="M10933 7121 c-17 -12 -54 -70 -65 -103 -6 -18 -28 -70 -49 -115 -21
-46 -44 -104 -50 -130 -7 -27 -18 -57 -25 -67 -7 -11 -30 -72 -49 -135 -20
-64 -47 -141 -61 -172 -13 -31 -24 -65 -24 -76 0 -10 -6 -27 -14 -38 -7 -11
-21 -40 -29 -65 -28 -81 -68 -184 -87 -227 -11 -24 -20 -51 -20 -61 0 -26 -44
-170 -69 -225 -12 -25 -21 -52 -21 -59 0 -8 -11 -36 -24 -64 -13 -27 -38 -87
-56 -134 -18 -47 -42 -107 -53 -135 -11 -27 -37 -99 -58 -160 -57 -165 -76
-216 -98 -262 -12 -23 -21 -50 -21 -60 0 -10 -6 -29 -13 -43 -24 -45 -35 -87
-27 -99 5 -9 63 -12 216 -12 239 1 247 4 274 82 8 24 22 58 31 74 9 17 19 55
23 85 9 68 43 147 68 161 21 11 648 2 665 -10 5 -3 17 -26 25 -51 9 -25 30
-81 47 -125 18 -44 41 -105 51 -135 32 -88 23 -85 259 -88 114 -2 223 1 242 5
44 12 49 44 16 110 -14 26 -28 64 -32 83 -4 19 -13 42 -20 50 -7 8 -16 26 -20
40 -4 14 -18 41 -31 60 -13 19 -24 41 -24 48 0 7 -11 38 -25 68 -14 30 -25 61
-25 69 0 9 -9 34 -19 58 -27 57 -59 149 -80 227 -10 36 -23 75 -28 85 -6 11
-14 39 -18 62 -4 23 -15 53 -24 65 -23 29 -107 233 -131 318 -10 36 -26 79
-34 95 -9 17 -16 37 -16 45 0 9 -11 32 -25 52 -14 20 -25 45 -25 55 0 10 -7
27 -15 37 -8 10 -22 42 -31 70 -9 28 -21 56 -26 63 -5 6 -18 38 -28 70 -52
160 -96 276 -121 313 -9 14 -19 39 -22 56 -3 18 -18 49 -32 69 -14 21 -25 48
-25 60 0 12 -18 43 -40 67 -39 45 -69 62 -87 49z m55 -974 c7 -7 17 -37 23
-67 6 -29 18 -69 26 -89 9 -20 22 -60 30 -90 7 -30 18 -60 23 -67 6 -6 15 -37
21 -68 6 -32 21 -78 35 -103 51 -98 33 -109 -185 -116 -161 -4 -165 -4 -187
18 -22 22 -22 25 -9 74 7 29 18 58 24 64 5 7 15 35 22 62 6 28 20 64 30 81 11
17 19 46 19 63 0 18 9 51 20 74 12 23 25 61 30 83 16 70 28 94 49 94 10 0 23
-6 29 -13z"/>
<path d="M3225 6804 c-169 -11 -266 -32 -475 -107 -155 -55 -420 -184 -481
-233 -8 -6 -52 -38 -99 -70 -47 -32 -94 -66 -105 -75 -150 -125 -350 -316
-434 -416 -48 -57 -151 -195 -237 -318 -120 -170 -281 -498 -343 -695 -6 -19
-22 -71 -35 -115 -14 -44 -39 -141 -56 -215 -16 -74 -37 -164 -46 -200 -49
-210 -58 -781 -14 -995 4 -22 18 -89 30 -150 82 -417 229 -818 407 -1103 29
-48 56 -94 60 -102 11 -24 92 -147 106 -162 7 -7 28 -35 47 -63 93 -137 163
-218 345 -400 196 -197 305 -288 525 -439 311 -214 692 -381 1080 -475 327
-78 514 -96 895 -87 339 8 518 34 840 124 94 26 339 115 419 152 35 17 69 30
74 30 5 0 54 23 108 51 258 135 466 275 690 464 112 95 286 261 329 315 11 14
55 66 96 115 275 327 456 654 610 1103 64 187 141 535 159 717 20 219 9 714
-20 860 -6 28 -22 109 -36 180 -34 176 -56 260 -103 390 -122 339 -203 520
-310 693 -28 46 -51 87 -51 92 0 5 -3 10 -7 12 -5 2 -30 35 -56 75 -51 76 -73
100 -84 90 -3 -4 -5 -77 -4 -162 8 -594 -138 -1081 -446 -1490 -132 -175 -218
-268 -383 -416 -198 -176 -322 -256 -600 -387 -93 -44 -305 -113 -450 -146
-181 -42 -563 -58 -770 -31 -325 41 -676 172 -940 350 -196 132 -423 351 -530
509 -19 28 -38 53 -42 54 -4 2 -8 10 -8 17 0 7 -4 15 -9 17 -16 6 -118 196
-163 302 -99 238 -131 405 -132 686 0 182 1 193 43 370 11 48 56 146 89 195
88 131 207 265 235 265 8 0 27 -13 43 -28 115 -110 240 -152 476 -159 169 -6
254 3 412 41 260 63 418 265 373 477 -18 80 -46 146 -84 194 -26 34 -165 155
-177 155 -3 0 -33 13 -68 30 -183 86 -445 129 -693 114z"/>
</g>
</svg>
